<?xml version="1.0" encoding="utf-8"?>
<!-- Generator: Adobe Illustrator 25.0.1, SVG Export Plug-In . SVG Version: 6.00 Build 0)  -->
<svg version="1.1" id="图层_1" xmlns="http://www.w3.org/2000/svg" xmlns:xlink="http://www.w3.org/1999/xlink" x="0px" y="0px"
	 viewBox="0 0 983.21 319.53" style="enable-background:new 0 0 983.21 319.53;" xml:space="preserve">
<style type="text/css">
	.st0{fill:#FFFFFF;}
</style>
<g>
	<g>
		<path class="st0" d="M167.65,211.36l-49.88-94.64h18.44l33.46,68.75c2.69,5.51,4.95,10.67,6.76,15.49
			c1.99-5.16,4.3-10.33,6.94-15.49l34.78-68.75h17.39l-50.41,94.64H167.65z"/>
		<path class="st0" d="M253.72,211.36v-94.64h17.04v94.64H253.72z"/>
		<path class="st0" d="M337.59,211.36l-49.88-94.64h18.44l33.46,68.75c2.69,5.51,4.95,10.67,6.76,15.49
			c1.99-5.16,4.3-10.33,6.94-15.49l34.78-68.75h17.39l-50.41,94.64H337.59z"/>
		<path class="st0" d="M531.11,211.36v-94.64h17.04v83.47h63.41v11.17H531.11z"/>
		<path class="st0" d="M662.7,211.36v-94.64h17.48l67.62,74.31v-74.31h16.34v94.64h-17.48L679.03,137v74.37H662.7z"/>
		<g>
			<polygon class="st0" points="513.76,211.36 494.35,211.36 480.32,184.44 437.55,184.44 442.83,173.31 474.52,173.31 
				452.2,130.47 411.36,211.36 393.27,211.36 442.71,116.72 461.07,116.72 			"/>
		</g>
		<rect x="781.29" y="116.72" class="st0" width="17.04" height="94.64"/>
		<g>
			<polygon class="st0" points="824.36,164.57 865.44,211.36 843.38,211.36 803.59,164.57 843.38,117.77 865.44,117.77 			"/>
		</g>
		<path class="st0" d="M628.68,211.36v-94.64h17.04v94.64H628.68z"/>
	</g>
</g>
</svg>
